<svg width="18" height="18" viewBox="0 0 18 18" fill="none"
    xmlns="http://www.w3.org/2000/svg">
    <path fill-rule="evenodd" clip-rule="evenodd" d="M4.3445 1.01727C7.4136 0.674256 10.5864 0.674256 13.6555 1.01727C15.3682 1.20869 16.7499 2.5581 16.9511 4.27759C17.318 7.41522 17.318 10.5849 16.9511 13.7225C16.7499 15.442 15.3682 16.7914 13.6555 16.9829C10.5864 17.3259 7.4136 17.3259 4.3445 16.9829C2.63178 16.7914 1.25002 15.442 1.04891 13.7225C0.681938 10.5849 0.681938 7.41522 1.04891 4.27759C1.25002 2.5581 2.63178 1.20869 4.3445 1.01727ZM5.46967 5.46973C5.76256 5.17684 6.23744 5.17684 6.53033 5.46973L9.00001 7.93941L11.4697 5.46974C11.7626 5.17685 12.2374 5.17685 12.5303 5.46974C12.8232 5.76263 12.8232 6.23751 12.5303 6.5304L10.0607 9.00007L12.5303 11.4697C12.8232 11.7626 12.8232 12.2375 12.5303 12.5304C12.2374 12.8233 11.7626 12.8233 11.4697 12.5304L9.00001 10.0607L6.53034 12.5304C6.23744 12.8233 5.76257 12.8233 5.46968 12.5304C5.17678 12.2375 5.17678 11.7626 5.46968 11.4697L7.93935 9.00007L5.46967 6.53039C5.17678 6.2375 5.17678 5.76262 5.46967 5.46973Z" fill="#000"/>
</svg>
